<svg width="44" height="34" viewBox="0 0 44 34" fill="none" xmlns="http://www.w3.org/2000/svg">
<path fill-rule="evenodd" clip-rule="evenodd" d="M14.4334 0.204242C14.2676 0.316647 12.0694 2.88818 9.54861 5.91886L4.96528 11.4293L2.82226 11.4302C0.213737 11.4312 0 11.5195 0 12.5938C0 13.4046 0.202125 13.6355 1.02331 13.7636L1.57208 13.8492L3.67705 21.9095C4.88996 26.5543 5.93267 30.2468 6.13754 30.6236C6.58579 31.448 7.81229 32.6579 8.70833 33.16C10.2025 33.9971 10.2496 34 22 34C33.7526 34 33.8001 33.9969 35.2912 33.1589C36.1423 32.6806 37.2637 31.5907 37.7691 30.7507C38.0323 30.3131 38.8065 27.5875 40.2657 21.9602L42.3806 13.8041L42.9527 13.7163C43.6485 13.6096 44 13.1786 44 12.4326C44 11.5436 43.6886 11.4323 41.1777 11.4241L39.0347 11.417L35.1389 6.64854C29.5368 -0.208447 29.7249 -5.02653e-05 29.139 0.000829043C28.8006 0.0012687 28.49 0.141519 28.1493 0.447811C27.2097 1.29253 27.2094 1.2918 31.5622 6.57058C33.7113 9.17685 35.4408 11.337 35.4053 11.371C35.3699 11.4049 29.3243 11.4159 21.9708 11.3952L8.60063 11.3578L11.4994 7.84059C13.0938 5.90611 14.8712 3.73979 15.4492 3.02667C16.6864 1.4999 16.7723 1.10143 16.0076 0.431544C15.4721 -0.0377135 14.91 -0.118757 14.4334 0.204242ZM11.8329 16.9143C12.1176 17.0285 12.4247 17.2549 12.5156 17.4177C12.6256 17.615 12.6806 19.5939 12.6806 23.3542V28.9948L12.285 29.4456C11.7966 30.0025 10.9597 30.0655 10.3331 29.5928L9.93056 29.2891V23.39V17.4908L10.2743 17.1909C10.5961 16.9099 10.9169 16.7455 11.1959 16.7185C11.2616 16.7122 11.5483 16.8003 11.8329 16.9143ZM17.684 17.1914L18.0278 17.4908V23.334V29.1771L17.6527 29.5368C17.3768 29.8016 17.1126 29.8966 16.6528 29.8966C16.1929 29.8966 15.9288 29.8016 15.6528 29.5368L15.2778 29.1771V23.4014C15.2778 17.8286 15.2886 17.6125 15.5864 17.2495C16.0789 16.6488 17.0307 16.6224 17.684 17.1914ZM22.5929 16.8693C23.513 17.1771 23.5278 17.2814 23.5278 23.4523V29.0398L23.0812 29.4682C22.5066 30.0194 21.7432 30.0487 21.1301 29.5429L20.7014 29.1895L20.6578 23.5771C20.6103 17.4437 20.6325 17.2577 21.4532 16.9149C22.0357 16.6716 22.0052 16.6728 22.5929 16.8693ZM27.9402 16.8693C28.8602 17.1771 28.875 17.2814 28.875 23.4523V29.0398L28.4284 29.4682C27.8538 30.0194 27.0904 30.0487 26.4773 29.5429L26.0486 29.1895L26.0014 23.7175C25.9488 17.6112 25.9901 17.2527 26.7838 16.9216C27.385 16.6709 27.351 16.6724 27.9402 16.8693ZM33.8785 17.2426L34.2222 17.6027V23.3898V29.1771L33.8472 29.5368C33.5712 29.8016 33.3071 29.8966 32.8472 29.8966C32.3874 29.8966 32.1232 29.8016 31.8473 29.5368L31.4722 29.1771V23.334V17.4908L31.816 17.1868C32.4529 16.6234 33.3095 16.6467 33.8785 17.2426Z" fill="#8BD7D0"/>
</svg>
