<svg width="34" height="34" viewBox="0 0 34 34" fill="none" xmlns="http://www.w3.org/2000/svg">
<path fill-rule="evenodd" clip-rule="evenodd" d="M14.8294 0.0798132C8.24593 0.925286 2.53259 5.83509 0.678067 12.2407C-0.993837 18.0151 0.470887 24.1582 4.57666 28.5918C8.12419 32.4227 13.4498 34.4393 18.6462 33.9192C27.9892 32.9843 34.8552 24.6243 33.9136 15.3292C33.5112 11.356 31.8558 7.8794 29.0025 5.01541C26.3791 2.38217 23.4119 0.83706 19.7513 0.198204C18.5989 -0.00298406 15.9667 -0.0663272 14.8294 0.0798132ZM19.1138 1.94118C23.2382 2.47688 27.2702 5.00078 29.5874 8.49759C31.2349 10.9836 32.2313 14.1663 32.2313 16.9433C32.2313 19.0253 31.5325 21.9069 30.56 23.8353C30.0012 24.9436 29.0506 26.4017 28.9516 26.3026C28.9124 26.2634 28.7147 25.7364 28.512 25.1315C27.4971 22.0997 25.2696 19.5877 22.3138 18.1417C21.7066 17.8446 21.0964 17.6001 20.9577 17.5986C20.8191 17.5971 20.2458 17.771 19.6835 17.9853C17.8229 18.6942 15.944 18.6573 14.0055 17.8737L13.1143 17.5134L12.1292 17.9293C8.96541 19.2652 6.28066 22.2678 5.33336 25.5295L5.07796 26.4085L4.7195 25.9741C4.05126 25.1648 2.57734 21.9662 2.26062 20.6383C0.616892 13.7473 3.79495 6.70786 9.99016 3.51706C12.836 2.05143 15.895 1.52297 19.1138 1.94118ZM15.0413 5.14949C13.7443 5.59198 12.6855 6.41649 11.9349 7.56827C11.1101 8.83391 10.9197 9.48272 10.9322 10.9861C10.9454 12.5833 11.3083 13.5965 12.3047 14.8187C14.1597 17.0941 17.1381 17.7233 19.7668 16.3951C22.0955 15.2184 23.5477 12.401 23.0652 9.99595C22.2933 6.14894 18.618 3.92908 15.0413 5.14949Z" fill="#8BD7D0"/>
</svg>
