<svg width="35" height="33" viewBox="0 0 35 33" fill="none" xmlns="http://www.w3.org/2000/svg">
<path d="M10.2084 16.5C10.2084 18.3234 10.9766 20.072 12.3441 21.3614C13.7115 22.6507 15.5662 23.375 17.5 23.375V9.625C15.5662 9.625 13.7115 10.3493 12.3441 11.6386C10.9766 12.928 10.2084 14.6766 10.2084 16.5Z" fill="#8BD7D0"/>
<path d="M17.5 1.37501C14.3273 1.37501 11.2258 2.26207 8.58778 3.92403C5.94974 5.58598 3.89364 7.94819 2.67948 10.7119C1.46532 13.4757 1.14765 16.5168 1.76662 19.4507C2.38559 22.3847 3.91341 25.0797 6.15688 27.195C8.40034 29.3103 11.2587 30.7508 14.3705 31.3344C17.4823 31.918 20.7077 31.6185 23.6389 30.4737C26.5702 29.3289 29.0755 27.3903 30.8382 24.903C32.6009 22.4157 33.5417 19.4914 33.5417 16.5C33.5514 14.5112 33.143 12.5403 32.3403 10.7012C31.5375 8.86201 30.3563 7.19102 28.8647 5.78472C27.3732 4.37842 25.601 3.26467 23.6503 2.50779C21.6997 1.75091 19.6094 1.3659 17.5 1.37501ZM4.37505 16.5C4.39419 13.2235 5.78315 10.0864 8.24043 7.76951C10.6977 5.45265 14.025 4.14306 17.5 4.12501V9.62501C19.4339 9.62501 21.2886 10.3493 22.656 11.6386C24.0235 12.928 24.7917 14.6766 24.7917 16.5C24.7917 18.3234 24.0235 20.0721 22.656 21.3614C21.2886 22.6507 19.4339 23.375 17.5 23.375V28.875C14.025 28.857 10.6977 27.5474 8.24043 25.2305C5.78315 22.9136 4.39419 19.7765 4.37505 16.5Z" fill="#8BD7D0"/>
</svg>
