<svg width="43" height="39" viewBox="0 0 43 39" fill="none" xmlns="http://www.w3.org/2000/svg">
<path d="M41.9597 7.99227C41.2925 6.42828 40.3305 5.011 39.1275 3.81978C37.9236 2.62501 36.5042 1.67554 34.9465 1.023C33.3312 0.343677 31.5987 -0.00404039 29.8496 3.54202e-05C27.3957 3.54202e-05 25.0016 0.680333 22.921 1.96534C22.4233 2.27273 21.9504 2.61036 21.5025 2.97823C21.0545 2.61036 20.5816 2.27273 20.0839 1.96534C18.0033 0.680333 15.6092 3.54202e-05 13.1553 3.54202e-05C11.3883 3.54202e-05 9.67611 0.342704 8.05845 1.023C6.49554 1.6781 5.08692 2.62044 3.87741 3.81978C2.67286 5.00966 1.71063 6.42727 1.04526 7.99227C0.353397 9.61995 0 11.3484 0 13.1273C0 14.8053 0.338465 16.5539 1.01042 18.3328C1.57287 19.8194 2.37921 21.3614 3.40953 22.9185C5.04213 25.3827 7.28695 27.9527 10.0743 30.558C14.6933 34.8766 19.2676 37.8599 19.4617 37.9808L20.6414 38.7468C21.164 39.0844 21.836 39.0844 22.3586 38.7468L23.5382 37.9808C23.7323 37.8548 28.3016 34.8766 32.9256 30.558C35.713 27.9527 37.9578 25.3827 39.5904 22.9185C40.6207 21.3614 41.4321 19.8194 41.9895 18.3328C42.6615 16.5539 42.9999 14.8053 42.9999 13.1273C43.0049 11.3484 42.6515 9.61995 41.9597 7.99227ZM21.5025 34.7607C21.5025 34.7607 3.78284 23.2662 3.78284 13.1273C3.78284 7.99227 7.97881 3.82986 13.1553 3.82986C16.7938 3.82986 19.9495 5.88587 21.5025 8.88926C23.0554 5.88587 26.2111 3.82986 29.8496 3.82986C35.0261 3.82986 39.2221 7.99227 39.2221 13.1273C39.2221 23.2662 21.5025 34.7607 21.5025 34.7607Z" fill="#8BD7D0"/>
</svg>
